# Blender 3.1.0
# www.blender.org
mtllib white_tulip.mtl
o white_tulip
v -0.353553 -0.500000 0.353553
v 0.353553 -0.500000 -0.353553
v -0.353553 0.500000 0.353553
v 0.353553 0.500000 -0.353553
vn 0.7071 -0.0000 0.7071
vt 0.000000 0.000000
vt 1.000000 0.000000
vt 0.000000 1.000000
vt 1.000000 1.000000
s 0
usemtl white_tulip
f 2/2/1 3/3/1 1/1/1
f 2/2/1 4/4/1 3/3/1
o white_tulip.001
v -0.353553 -0.500000 -0.353553
v 0.353553 -0.500000 0.353553
v -0.353553 0.500000 -0.353553
v 0.353553 0.500000 0.353553
vn -0.7071 -0.0000 0.7071
vt 0.000000 0.000000
vt 1.000000 0.000000
vt 0.000000 1.000000
vt 1.000000 1.000000
s 0
usemtl white_tulip
f 6/6/2 7/7/2 5/5/2
f 6/6/2 8/8/2 7/7/2
